Coordinates
version=1
nRows=30
nColumns=38
inDegrees=no

Units are S.I. units (second, meters, Newtons, ...)
If the header above contains a line with 'inDegrees', this indicates whether rotational values are in degrees (yes) or radians (no).

endheader
time	pelvis_tilt	pelvis_list	pelvis_rotation	pelvis_tx	pelvis_ty	pelvis_tz	hip_flexion_r	hip_adduction_r	hip_rotation_r	knee_angle_r	ankle_angle_r	subtalar_angle_r	mtp_angle_r	hip_flexion_l	hip_adduction_l	hip_rotation_l	knee_angle_l	ankle_angle_l	subtalar_angle_l	mtp_angle_l	lumbar_extension	lumbar_bending	lumbar_rotation	arm_flex_r	arm_add_r	arm_rot_r	elbow_flex_r	pro_sup_r	wrist_flex_r	wrist_dev_r	arm_flex_l	arm_add_l	arm_rot_l	elbow_flex_l	pro_sup_l	wrist_flex_l	wrist_dev_l
0.68	-1.92689	1.46905	-2.85628	0.776839	-0.0146298	0.981844	0.0338631	-0.274039	-0.269924	1.02619	-0.108395	0	0	0.340551	0.120885	-0.319614	0.431221	0.0124178	0	0	-0.239723	-0.11896	0.120987	-0.115353	-0.199772	-0.0370524	0.41515	1.37396	0	0	0.0408438	-0.247085	0.445614	0.355898	1.24228	0	0
0.69	-1.85281	1.4627	-2.93174	0.776399	-0.00590117	0.982565	0.0744574	-0.290677	-0.247921	1.07639	-0.15774	0	0	0.335742	0.131492	-0.318752	0.427903	0.0195941	0	0	-0.233879	-0.12817	0.121602	-0.118006	-0.199828	-0.0360144	0.421283	1.36914	0	0	0.0403286	-0.25107	0.452642	0.362718	1.23375	0	0
0.7	-1.79204	1.45762	-2.994	0.776009	0.00271211	0.983421	0.114372	-0.303936	-0.225899	1.12338	-0.204314	0	0	0.330513	0.139937	-0.31636	0.424225	0.0257418	0	0	-0.228434	-0.135252	0.122284	-0.118669	-0.197964	-0.0481103	0.423367	1.38829	0	0	0.0422952	-0.247187	0.422438	0.356649	1.27863	0	0
0.71	-1.75865	1.45487	-3.02808	0.775518	0.0112226	0.984545	0.150244	-0.312888	-0.205926	1.16603	-0.243426	0	0	0.321391	0.146024	-0.311687	0.417466	0.0320404	0	0	-0.225204	-0.138749	0.122483	-0.120043	-0.198891	-0.0462633	0.428294	1.3872	0	0	0.0431949	-0.247537	0.422835	0.35842	1.27897	0	0
0.72	-1.73318	1.45387	-3.05404	0.774994	0.0196419	0.985739	0.184953	-0.317874	-0.18515	1.20708	-0.26397	0	0	0.310323	0.150713	-0.304566	0.408033	0.0379952	0	0	-0.222148	-0.139874	0.122472	-0.120719	-0.200417	-0.0433522	0.432678	1.38551	0	0	0.0445524	-0.246538	0.422658	0.358003	1.27852	0	0
0.73	-1.69667	1.46257	-3.09278	0.774607	0.0284344	0.986173	0.220744	-0.310173	-0.164092	1.24688	-0.263784	0	0	0.302778	0.144931	-0.29394	0.404378	0.0491066	0	0	-0.213883	-0.129951	0.126548	-0.124315	-0.204437	-0.0403677	0.438561	1.38478	0	0	0.0440523	-0.24295	0.423537	0.355288	1.27616	0	0
0.74	-1.67817	1.46242	-3.10982	0.774106	0.0366638	0.987415	0.252633	-0.315366	-0.150399	1.28366	-0.253214	0	0	0.290799	0.148618	-0.288944	0.39562	0.0533198	0	0	-0.21115	-0.129768	0.123933	-0.121584	-0.204606	-0.0398274	0.437403	1.38522	0	0	0.0460701	-0.241943	0.424971	0.352851	1.2727	0	0
0.75	-1.67151	1.4634	-3.11402	0.773652	0.0447542	0.98882	0.281118	-0.315456	-0.134544	1.31433	-0.23613	0	0	0.277059	0.151229	-0.28529	0.385949	0.057673	0	0	-0.209921	-0.128246	0.120147	-0.117022	-0.204398	-0.039157	0.433628	1.38577	0	0	0.0484117	-0.241177	0.42767	0.350515	1.26759	0	0
0.76	-1.74004	1.44652	-3.04158	0.773007	0.0525026	0.992094	0.298255	-0.336636	-0.118788	1.33752	-0.221873	0	0	0.243945	0.174523	-0.286389	0.355068	0.0471525	0	0	-0.22285	-0.145948	0.109805	-0.105034	-0.199634	-0.039432	0.422957	1.38384	0	0	0.0547845	-0.243824	0.431036	0.348573	1.26074	0	0
0.77	-1.75905	1.43668	-3.0173	0.772403	0.0600434	0.994546	0.32019	-0.347031	-0.102233	1.35719	-0.208759	0	0	0.220195	0.189509	-0.28958	0.332041	0.0424659	0	0	-0.22944	-0.155809	0.0998724	-0.0944679	-0.195732	-0.0417272	0.413201	1.38892	0	0	0.0616713	-0.241417	0.410805	0.339045	1.28806	0	0
0.78	-1.68393	1.46109	-3.08865	0.772276	0.0682743	0.993571	0.354681	-0.318106	-0.0936184	1.37666	-0.196551	0	0	0.229916	0.164039	-0.287241	0.351574	0.0679353	0	0	-0.212026	-0.129237	0.101826	-0.0984864	-0.202319	-0.0245731	0.417707	1.36904	0	0	0.0565258	-0.245386	0.452148	0.351028	1.23071	0	0
0.79	-1.66756	1.47231	-3.10249	0.771973	0.0767324	0.993917	0.378805	-0.307132	-0.0871251	1.38968	-0.189128	0	0	0.218517	0.155687	-0.279034	0.345979	0.0790652	0	0	-0.206073	-0.115994	0.100954	-0.0957788	-0.203139	-0.0313333	0.411256	1.38624	0	0	0.0573212	-0.239347	0.432609	0.342974	1.25863	0	0
0.8	-1.69117	1.46651	-3.07335	0.771551	0.0840885	0.995846	0.399164	-0.310772	-0.0721014	1.39771	-0.18594	0	0	0.200313	0.164537	-0.276855	0.332689	0.0760395	0	0	-0.210995	-0.122063	0.0926488	-0.0865176	-0.200295	-0.0296762	0.402838	1.38531	0	0	0.0620656	-0.241833	0.4364	0.343433	1.25424	0	0
0.81	-1.70364	1.46868	-3.05629	0.77108	0.0920802	0.996878	0.418304	-0.311187	-0.0674605	1.40233	-0.184514	0	0	0.18516	0.165115	-0.269478	0.324419	0.079151	0	0	-0.211175	-0.11876	0.0874742	-0.0816976	-0.200342	-0.0270019	0.397821	1.38318	0	0	0.0644111	-0.241199	0.433148	0.341038	1.26103	0	0
0.82	-1.6729	1.48069	-3.0857	0.770858	0.100126	0.996789	0.442082	-0.291271	-0.0537193	1.40433	-0.177445	0	0	0.178353	0.154851	-0.259148	0.323062	0.0889369	0	0	-0.204061	-0.105232	0.0882136	-0.0803843	-0.203177	-0.0248396	0.39628	1.38457	0	0	0.0647839	-0.239144	0.433516	0.33996	1.26334	0	0
0.83	-1.70493	1.48285	-3.05089	0.770563	0.107985	0.997775	0.457757	-0.289181	-0.0479113	1.40146	-0.171344	0	0	0.162123	0.154833	-0.251015	0.315278	0.0919748	0	0	-0.206046	-0.102503	0.0851676	-0.0747615	-0.203962	-0.0170844	0.390072	1.37663	0	0	0.0658775	-0.243922	0.458185	0.347633	1.23265	0	0
0.84	-1.75293	1.47666	-2.99949	0.77028	0.115362	0.999547	0.471273	-0.292451	-0.0360475	1.39477	-0.164705	0	0	0.143191	0.162847	-0.247252	0.305053	0.0894163	0	0	-0.213586	-0.1088	0.0789972	-0.0650296	-0.200948	-0.0201921	0.381121	1.38433	0	0	0.0729591	-0.240494	0.431851	0.337485	1.2704	0	0
0.85	-1.73532	1.48903	-3.01586	0.770069	0.123399	0.999168	0.49099	-0.275747	-0.0306576	1.38743	-0.155785	0	0	0.13576	0.152237	-0.238311	0.303396	0.100793	0	0	-0.207232	-0.094936	0.0799014	-0.0638684	-0.204027	-0.0171161	0.379425	1.38461	0	0	0.0729122	-0.238317	0.432319	0.336998	1.2705	0	0
0.86	-1.77626	1.4924	-2.97251	0.769921	0.131022	0.999894	0.503528	-0.267909	-0.0237334	1.37527	-0.147302	0	0	0.1202	0.149725	-0.234866	0.296812	0.105924	0	0	-0.209932	-0.0907946	0.0775841	-0.0596867	-0.206072	-0.0014079	0.377145	1.3686	0	0	0.0727529	-0.24722	0.480036	0.352984	1.20356	0	0
0.87	-1.81324	1.49456	-2.93235	0.769637	0.138669	1.00065	0.515147	-0.261804	-0.0178962	1.35989	-0.137565	0	0	0.103877	0.149064	-0.229535	0.287945	0.109835	0	0	-0.212915	-0.0871372	0.0728705	-0.0526427	-0.206538	0.00533939	0.370641	1.36331	0	0	0.0799648	-0.234388	0.416434	0.329443	1.28819	0	0
0.88	-1.86045	1.49469	-2.88283	0.76896	0.146221	1.00141	0.538508	-0.281595	-0.0377178	1.35624	-0.146157	0	0	0.0857677	0.151148	-0.223954	0.277232	0.112164	0	0	-0.217287	-0.0847734	0.0698344	-0.0463097	-0.207687	0.00772715	0.365615	1.36196	0	0	0.0837365	-0.232429	0.41647	0.327812	1.28737	0	0
0.89	-1.91414	1.48669	-2.82561	0.768678	0.153334	1.003	0.544707	-0.287549	-0.0340209	1.33377	-0.133725	0	0	0.0649068	0.159213	-0.22488	0.265818	0.109779	0	0	-0.227371	-0.0916452	0.0637852	-0.0370763	-0.205204	0.0101095	0.359207	1.36068	0	0	0.0900322	-0.233566	0.417042	0.327154	1.28571	0	0
0.9	-1.91256	1.50168	-2.82631	0.768992	0.160708	1.00231	0.546538	-0.2467	-0.0121999	1.29505	-0.101097	0	0	0.0601525	0.144513	-0.220197	0.264635	0.122337	0	0	-0.221464	-0.076112	0.0657626	-0.0335759	-0.207368	0.0154656	0.355589	1.35661	0	0	0.0918178	-0.232116	0.421211	0.327775	1.2756	0	0
0.91	-1.95936	1.49537	-2.77592	0.768765	0.167683	1.00365	0.550365	-0.252372	-0.0137956	1.26555	-0.0905409	0	0	0.0410867	0.150751	-0.218802	0.253527	0.121024	0	0	-0.230817	-0.0809112	0.0603885	-0.0247295	-0.205253	0.0173777	0.349899	1.35445	0	0	0.098391	-0.232955	0.423406	0.326984	1.27186	0	0
0.92	-1.94479	1.50663	-2.78745	0.768175	0.175306	1.00276	0.57585	-0.264918	-0.0498849	1.25277	-0.0964768	0	0	0.035384	0.142051	-0.210313	0.250185	0.131344	0	0	-0.224672	-0.0677617	0.0601317	-0.0231223	-0.207983	0.0132162	0.348173	1.36249	0	0	0.0998182	-0.229421	0.424441	0.325753	1.27307	0	0
0.93	-1.98245	1.50931	-2.74518	0.767866	0.182697	1.00304	0.579131	-0.263054	-0.0603227	1.21875	-0.0866397	0	0	0.0223545	0.139419	-0.205025	0.244397	0.134862	0	0	-0.227693	-0.0628232	0.0562909	-0.0185094	-0.208378	0.0148943	0.345523	1.3587	0	0	0.104287	-0.22714	0.418646	0.322572	1.28065	0	0
0.94	-2.0302	1.51131	-2.69258	0.767536	0.190156	1.00333	0.580064	-0.262457	-0.073477	1.18198	-0.0772672	0	0	0.00853218	0.137153	-0.198562	0.238587	0.139187	0	0	-0.231452	-0.058088	0.0524921	-0.0149776	-0.208527	0.0142624	0.344263	1.35512	0	0	0.109004	-0.224792	0.411667	0.319258	1.28901	0	0
0.95	-2.10387	1.51117	-2.61231	0.767211	0.197585	1.00362	0.576681	-0.265103	-0.0919385	1.14312	-0.067429	0	0	-0.00801216	0.135984	-0.187917	0.232012	0.143036	0	0	-0.237515	-0.0554666	0.0501793	-0.0111304	-0.203045	-0.0193425	0.339303	1.34402	0	0	0.104844	-0.260787	0.597323	0.383723	1.01264	0	0
0.96	-2.20475	1.51424	-2.50899	0.766985	0.20525	1.00405	0.571619	-0.261234	-0.11077	1.09914	-0.0599745	0	0	-0.0236147	0.130261	-0.185555	0.225826	0.147602	0	0	-0.243689	-0.0464192	0.0460187	-0.00920394	-0.209256	0.0099328	0.345642	1.34739	0	0	0.122834	-0.21247	0.356085	0.298865	1.36094	0	0
0.97	-2.26987	1.51531	-2.44109	0.76692	0.212846	1.00419	0.567735	-0.260323	-0.130961	1.05514	-0.0532167	0	0	-0.037572	0.127169	-0.182301	0.220539	0.152128	0	0	-0.248218	-0.0419564	0.0449292	-0.00731124	-0.209661	0.00817183	0.346934	1.34597	0	0	0.126932	-0.211802	0.35728	0.299109	1.36021	0	0
